<svg xmlns="http://www.w3.org/2000/svg" viewBox="131.5449981689453 50 311.9100036621094 453.0998023997972"> <svg xmlns="http://www.w3.org/2000/svg" viewBox="20.646888732910156 7.71000337600708 52.734405517578125 86.44000244140625" height="225.5068916620263" width="137.5748852086664" y="120" x="218.69866243906642" preserveAspectRatio="xMinYMin" style="overflow: visible;"><path id="Layer_1" dataName="Layer 1" class="cls-1" d="M48.31,94.15V93.7c13.38,0,19.35-6.41,22-11.78C75.29,71.84,72.57,58,67.19,51c-7.3-9.56-12.52-22.39-8.36-28.45l.37.26C56.15,27.24,58,38.25,67.55,50.7c5.46,7.14,8.23,21.19,3.17,31.42C68,87.61,61.92,94.15,48.31,94.15Z" style="fill: #9e005d;"></path><path id="Layer_1" dataName="Layer 1" class="cls-2" d="M47,93.94v-.46c10.39,0,17.86-4,21.59-11.3,4.85-9.54,2.27-23.17-2.91-30.33-6.64-9.22-11.14-23-6.83-29.32l.37.26c-3.75,5.45-.68,18.37,6.83,28.8C71.4,59,74,72.56,69,82.39,66.31,87.62,60.34,93.88,47,93.94Z" style="fill: #8f156e;"></path><path id="Layer_1" dataName="Layer 1" class="cls-3" d="M45.67,93.72v-.45c10.19-.1,17.51-3.84,21.17-10.84,4.77-9.13,2.38-22.27-2.69-29.7-6.9-10.17-9.38-24.28-5.31-30.2l.37.26c-4,5.78-1.49,19.65,5.31,29.69,5.15,7.53,7.57,20.88,2.72,30.16C63.49,89.79,56,93.63,45.67,93.72Z" style="fill: #812b7e;"></path><path id="Layer_1" dataName="Layer 1" class="cls-4" d="M44.34,93.5v-.45c10-.14,17.18-3.73,20.75-10.39,4.79-8.9,2.29-21.62-2.48-29-6.22-9.76-8-24.86-3.78-31.08l.37.26C55,28.88,56.86,43.73,63,53.36c4.85,7.55,7.37,20.46,2.5,29.52C61.84,89.69,54.52,93.36,44.34,93.5Z" style="fill: #72408f;"></path><path id="Layer_1" dataName="Layer 1" class="cls-5" d="M43,93.29v-.45c9.94-.19,16.78-3.53,20.33-9.93C68,74.5,65.73,62.24,61.08,54.48c-6.25-10.42-6.34-26-2.25-31.95l.37.26c-4,5.84-3.9,21.18,2.27,31.46,4.72,7.87,7,20.32,2.27,28.88C60.11,89.68,53.14,93.1,43,93.29Z" style="fill: #6456a0;"></path><path id="Layer_1" dataName="Layer 1" class="cls-6" d="M41.7,93.07v-.45c9.78-.23,16.49-3.44,20-9.53,4.67-8.22,2.2-20.14-2.09-27.73C56.83,50.48,55.37,44,55.43,37.17c0-6.06,1.35-11.66,3.4-14.64l.37.26C55.35,28.39,54,44.44,60,55.14c4.34,7.7,6.85,19.8,2.09,28.17C58.49,89.55,51.65,92.84,41.7,93.07Z" style="fill: #556bb0;"></path><path id="Layer_1" dataName="Layer 1" class="cls-7" d="M40.38,92.86V92.4c9.6-.27,16.18-3.34,19.55-9.12,3-5.12,4.29-15.27-1.89-27.05-5.6-10.73-3.41-27.57.8-33.7l.37.26c-4.14,6-6.3,22.64-.77,33.23C64.7,68,63.37,78.29,60.31,83.51,56.85,89.43,50.15,92.57,40.38,92.86Z" style="fill: #4680c1;"></path><path id="Layer_1" dataName="Layer 1" class="cls-8" d="M39.06,92.64l0-.45c9.43-.33,15.88-3.26,19.17-8.73,4.54-7.55,2.09-18.56-1.71-26.35C51,45.77,54.88,28.28,58.83,22.53l.37.26c-3.79,5.52-7.64,23.11-2.29,34.12,3.85,7.9,6.32,19.08,1.69,26.78C55.23,89.3,48.65,92.31,39.06,92.64Z" style="fill: #3896d1;"></path><path id="Layer_1" dataName="Layer 1" class="cls-9" d="M37.74,92.42l0-.45c9.27-.37,15.59-3.18,18.79-8.35C61.74,75.16,57.18,62.87,55,58c-5-11.17-.37-29.3,3.86-35.45l.37.26c-4.06,5.92-8.71,24.15-3.82,35,2.24,5,6.86,17.41,1.51,26.06C53.61,89.17,47.17,92.05,37.74,92.42Z" style="fill: #29abe2;"></path><path id="Layer_1" dataName="Layer 1" class="cls-10" d="M36.54,91.73v-.45c8.82,0,14.94-2.63,18.19-7.78,4.56-7.22,2.36-17.84-1.22-25.36C48,46.44,55,28.26,58.89,22.65l.37.25c-2,2.87-4.64,8.77-6.16,15.48-1.24,5.49-2.1,13.34.82,19.56,3.63,7.64,5.85,18.42,1.19,25.8C51.77,89,45.52,91.72,36.54,91.73Z" style="fill: #24a4dd;"></path><path id="Layer_1" dataName="Layer 1" class="cls-11" d="M36.89,91.06c-.53,0-1.07,0-1.62,0l0-.45c8.18.37,14.27-2.09,17.56-7.13,4-6.12,3.66-16-.86-25.17-5.54-11.22,2.25-28.78,6.89-35.53l.37.26C54.66,29.67,47,47,52.4,58.07c4.59,9.31,4.92,19.37.83,25.62C50.07,88.53,44.44,91.06,36.89,91.06Z" style="fill: #1f9dd9;"></path><path id="Layer_1" dataName="Layer 1" class="cls-12" d="M37,90.43a28.6,28.6,0,0,1-3-.16l0-.45c7.66.77,13.53-1.45,17-6.45,4.27-6.24,4.06-16.05-.53-25C44,45.64,56.32,26.5,58.87,22.79l.37.26c-2.52,3.67-14.77,22.61-8.37,35.11,4.66,9.1,4.85,19.1.5,25.47C49.17,86.84,44.94,90.43,37,90.43Z" style="fill: #1a95d4;"></path><path id="Layer_1" dataName="Layer 1" class="cls-13" d="M36.64,89.83a23.38,23.38,0,0,1-3.92-.35L32.8,89c7,1.21,12.77-.81,16.31-5.69,4.58-6.3,4.51-16.08-.17-24.92-6.34-12,5.31-28.91,9.69-35.28l.23-.33.37.26L59,23.4c-4.34,6.31-15.88,23.08-9.67,34.81,4.76,9,4.81,19,.14,25.39A15.22,15.22,0,0,1,36.64,89.83Z" style="fill: #158ecf;"></path><path id="Layer_1" dataName="Layer 1" class="cls-14" d="M36,89.27a18.2,18.2,0,0,1-4.59-.62l.11-.44c6.24,1.64,11.93-.12,15.63-4.84,5-6.32,5-16.1.22-24.93-6.12-11.21,4.76-26.33,10-33.6.56-.78,1.06-1.47,1.45-2.05l.38.26c-.4.58-.9,1.27-1.47,2.06-5.17,7.19-15.93,22.15-9.95,33.11,4.9,9,4.8,19-.27,25.43A14.23,14.23,0,0,1,36,89.27Z" style="fill: #0f87ca;"></path><path id="Layer_1" dataName="Layer 1" class="cls-15" d="M35.22,88.75a14.06,14.06,0,0,1-5.06-1l.17-.42a12.9,12.9,0,0,0,14.84-3.85c4.14-4.78,6.81-14.22.72-25.08s4.74-24.93,10.56-32.5c1-1.26,1.81-2.35,2.39-3.19l.38.26c-.59.85-1.43,1.94-2.41,3.21-5.75,7.48-16.47,21.4-10.53,32,6.21,11.07,3.47,20.71-.77,25.61A13.52,13.52,0,0,1,35.22,88.75Z" style="fill: #0a80c6;"></path><path id="Layer_1" dataName="Layer 1" class="cls-16" d="M34.13,88.23a10.8,10.8,0,0,1-5.25-1.35l.22-.4C33.54,88.92,39,87.86,43,83.76,47.66,79,50.8,69.54,44.36,58.38,38.24,47.7,49.14,34.54,55.65,26.67c1.33-1.61,2.48-3,3.19-4l.37.26C58.49,24,57.34,25.34,56,27c-6.44,7.78-17.21,20.79-11.24,31.19,6.56,11.38,3.34,21.08-1.42,25.93A13,13,0,0,1,34.13,88.23Z" style="fill: #0578c1;"></path><path id="Layer_1" dataName="Layer 1" class="cls-17" d="M33,87.77a8.42,8.42,0,0,1-5.36-1.84l.28-.35c3.47,2.76,8.59,2.19,12.76-1.43,5.74-5,8.65-14.9,2.21-25.85-6.23-10.58,5.24-23.44,12.09-31.13a57.5,57.5,0,0,0,3.9-4.64l.37.26a58.66,58.66,0,0,1-3.94,4.69c-6.76,7.59-18.09,20.29-12,30.59,6.57,11.18,3.58,21.33-2.3,26.43A12.39,12.39,0,0,1,33,87.77Z" style="fill: #0071bc;"></path><path id="Layer_1" dataName="Layer 1" class="cls-1" d="M48.31,94.15c-10.5,0-19.25-4.57-24-12.55-5-8.37-4.87-19.09.32-28.66a118.77,118.77,0,0,1,9.64-14.3c7.1-9.48,13.8-18.44,13.8-30.89h.45c0,12.6-6.74,21.62-13.88,31.16A117.87,117.87,0,0,0,25,53.15c-5.11,9.44-5.24,20-.33,28.22C29.36,89.21,38,93.7,48.31,93.7Z" style="fill: #9e005d;"></path><path id="Layer_1" dataName="Layer 1" class="cls-18" d="M49.34,93.49C39,93.49,30.26,89,25.35,81c-5.08-8.28-5.08-18.74,0-28a132.1,132.1,0,0,1,9.11-13.75C41.45,29.61,48,20.52,48,7.8h.46c0,12.86-6.64,22-13.67,31.7a130.25,130.25,0,0,0-9.08,13.71c-5,9.08-5,19.37,0,27.51C30.56,88.59,39.12,93,49.34,93l1.15,0v.45C50.11,93.49,49.72,93.49,49.34,93.49Z" style="fill: #a80b56;"></path><path id="Layer_1" dataName="Layer 1" class="cls-19" d="M50.49,92.85c-10.2,0-19.11-4.59-24.11-12.53-5.17-8.18-5.28-18.39-.31-27.3a152,152,0,0,1,8.55-13.11C41.51,30.11,48,20.86,48,7.84h.45C48.48,21,41.93,30.31,35,40.18a150,150,0,0,0-8.52,13.06C21.58,62,21.69,72,26.76,80.08,32,88.45,41.71,93,52.67,92.33l0,.45C52,92.83,51.22,92.85,50.49,92.85Z" style="fill: #b3174f;"></path><path id="Layer_1" dataName="Layer 1" class="cls-20" d="M51.6,92.22c-10.15,0-19-4.54-24.22-12.53A25.28,25.28,0,0,1,26.81,53c2.51-4.42,5.25-8.44,7.91-12.33C41.56,30.69,48,21.24,48,7.86h.45c0,13.52-6.5,23-13.38,33.1-2.65,3.88-5.39,7.9-7.89,12.3a24.88,24.88,0,0,0,.56,26.19c5.64,8.7,15.78,13.23,27.11,12.16l0,.45C53.79,92.17,52.69,92.22,51.6,92.22Z" style="fill: #bd2248;"></path><path id="Layer_1" dataName="Layer 1" class="cls-21" d="M52.88,91.61c-10.08,0-19.22-4.6-24.51-12.54a24.26,24.26,0,0,1-.82-26c2.34-4.08,4.81-7.79,7.2-11.39C41.87,30.93,48,21.67,48,7.86h.45c0,14-6.18,23.26-13.34,34-2.38,3.59-4.85,7.3-7.19,11.37a23.82,23.82,0,0,0,.81,25.55c5.93,8.9,16.78,13.53,28.32,12.07l.06.45A34,34,0,0,1,52.88,91.61Z" style="fill: #c82d41;"></path><path id="Layer_1" dataName="Layer 1" class="cls-22" d="M54,91A29.45,29.45,0,0,1,29.34,78.45,23.33,23.33,0,0,1,28.29,53c2.13-3.65,4.3-7,6.4-10.24C41.84,31.73,48,22.18,48,7.85h.46c0,14.46-6.22,24.07-13.41,35.19-2.1,3.24-4.26,6.58-6.39,10.22a22.87,22.87,0,0,0,1,24.93C36,87.44,47.37,92,59.28,90.15l.07.44A33.25,33.25,0,0,1,54,91Z" style="fill: #d23839;"></path><path id="Layer_1" dataName="Layer 1" class="cls-23" d="M55.38,90.42A30.44,30.44,0,0,1,30.29,77.84C24.88,70.12,24.41,60.83,29,53c1.85-3.11,3.67-6,5.44-8.79C42.05,32.25,48,22.79,48,7.83h.46c0,15.1-6,24.6-13.63,36.63-1.76,2.79-3.59,5.67-5.43,8.78C24.9,60.91,25.36,70,30.67,77.58,37.29,87,49.39,91.67,61.49,89.39l.09.45A33.6,33.6,0,0,1,55.38,90.42Z" style="fill: #dc4432;"></path><path id="Layer_1" dataName="Layer 1" class="cls-24" d="M56.69,89.81A31.72,31.72,0,0,1,31.25,77.19c-5.45-7.6-6-16.67-1.43-24.26,1.46-2.43,2.89-4.73,4.27-6.94,7.81-12.56,14-22.48,14-38.24h.45c0,15.89-6.2,25.85-14.05,38.47-1.38,2.22-2.8,4.51-4.26,6.94-4.46,7.44-3.94,16.32,1.41,23.77,5.77,8,17.93,14.75,32.11,11.66l.1.44A33.76,33.76,0,0,1,56.69,89.81Z" style="fill: #e74f2b;"></path><path id="Layer_1" dataName="Layer 1" class="cls-25" d="M57.88,89.31A32.35,32.35,0,0,1,32.16,76.65c-5.49-7.48-6.09-16.35-1.6-23.72q1.43-2.35,2.78-4.54C41.89,34.52,48.07,24.5,48.07,7.75h.45c0,16.88-6.2,26.94-14.79,40.88Q32.38,50.82,31,53.16C26.49,60.48,27.07,69,32.53,76.38a32,32,0,0,0,33.4,11.48l.11.43A33.58,33.58,0,0,1,57.88,89.31Z" style="fill: #f15a24;"></path><path id="Layer_1" dataName="Layer 1" class="cls-26" d="M58.18,88.17A31.86,31.86,0,0,1,32.82,75.91c-5.44-7.35-6-15.83-1.44-23.26l1.5-2.46C42,35.22,48.07,25.32,48.07,7.75h.45c0,17.7-6.07,27.64-15.25,42.68l-1.5,2.46c-4.42,7.26-3.9,15.55,1.42,22.75,6.05,8.18,18.75,14.74,33.49,11l.11.44A35.06,35.06,0,0,1,58.18,88.17Z" style="fill: #f26123;"></path><path id="Layer_1" dataName="Layer 1" class="cls-27" d="M58.46,87c-11.08,0-20.16-5.4-25-11.86-5.3-7.12-5.77-15.43-1.29-22.8C42.1,36.12,48.07,26.31,48.07,7.75h.45c0,18.69-6,28.54-15.93,44.86-4.38,7.2-3.92,15.33,1.26,22.29,6,8,18.69,14.4,33.58,10.5l.12.44A36,36,0,0,1,58.46,87Z" style="fill: #f36823;"></path><path id="Layer_1" dataName="Layer 1" class="cls-28" d="M58.72,85.9c-11,0-19.87-5.19-24.57-11.45A19.16,19.16,0,0,1,33,52.1c9.88-16.24,15-25.59,15-44.35h.45c0,18.88-5.18,28.27-15.11,44.59a18.71,18.71,0,0,0,1.11,21.83c5.91,7.89,18.61,14,33.66,10l.12.44A36.94,36.94,0,0,1,58.72,85.9Z" style="fill: #f36f22;"></path><path id="Layer_1" dataName="Layer 1" class="cls-29" d="M59,84.77c-10.83,0-19.56-5-24.14-11-5-6.67-5.38-14.65-1-21.9C43.74,35.58,48.07,26.5,48.07,7.75h.45c0,18.87-4.35,28-14.28,44.31-4.31,7.08-4,14.88.94,21.39C41,81.19,53.72,87.12,68.93,82.94l.12.44A38.19,38.19,0,0,1,59,84.77Z" style="fill: #f47721;"></path><path id="Layer_1" dataName="Layer 1" class="cls-30" d="M59.19,83.66C48.48,83.66,40,78.88,35.49,73c-4.9-6.45-5.19-14.27-.82-21.46,10-16.52,13.4-25.16,13.4-43.8h.45c0,18.6-3.52,27.71-13.46,44-4.27,7-4,14.66.79,21,5.76,7.59,18.45,13.31,33.83,9l.12.44A39.24,39.24,0,0,1,59.19,83.66Z" style="fill: #f57e20;"></path><path id="Layer_1" dataName="Layer 1" class="cls-31" d="M59.65,82.47c-9.65,0-18.51-3.65-23.49-10.17-4.76-6.24-5-13.9-.67-21C45.6,34.67,48.07,26.13,48.07,7.75h.45c0,18.48-2.48,27.07-12.64,43.76-4.23,7-4,14.44.64,20.51,6.72,8.8,20.66,12.27,33.91,8.46l.12.44A39.7,39.7,0,0,1,59.65,82.47Z" style="fill: #f5851f;"></path><path id="Layer_1" dataName="Layer 1" class="cls-32" d="M59.82,81.36c-9.51,0-18.16-3.49-23-9.76-4.63-6-4.82-13.54-.51-20.6C46.45,34.35,48.07,26,48.07,7.75h.45c0,18.35-1.63,26.74-11.82,43.48-4.2,6.9-4,14.22.49,20.09,6.62,8.61,20.59,11.87,34,7.93l.12.44A40.78,40.78,0,0,1,59.82,81.36Z" style="fill: #f68c1f;"></path><path id="Layer_1" dataName="Layer 1" class="cls-33" d="M60,80.26c-9.36,0-17.79-3.32-22.46-9.36-4.49-5.82-4.63-13.17-.36-20.18,10-16.49,10.93-24.44,10.93-43h.45c0,18.62-.9,26.62-11,43.21-4.17,6.83-4,14,.33,19.66,6.52,8.43,20.53,11.47,34.06,7.4l.14.44A42.16,42.16,0,0,1,60,80.26Z" style="fill: #f7931e;"></path><path id="Layer_1" dataName="Layer 1" class="cls-34" d="M59.73,79.32c-9.55,0-17-3.86-21-8.82-4.62-5.77-4.88-13.11-.71-20.15C47.68,34,48.07,26,48.07,7.75h.45c0,18.29-.39,26.37-10.14,42.84-4.07,6.86-3.82,14,.68,19.62,5.48,6.86,17.82,11.55,33,6.61l.14.43A40.35,40.35,0,0,1,59.73,79.32Z" style="fill: #f89e1e;"></path><path id="Layer_1" dataName="Layer 1" class="cls-35" d="M59.74,78.3c-8.9,0-16-3.55-19.83-8.2-4.75-5.71-5.14-13-1.07-20.11,9.23-16.05,9.23-24.25,9.23-42.24h.45c0,18.07,0,26.31-9.29,42.46-4,6.9-3.59,14,1,19.6,5.45,6.56,17.44,10.9,31.95,5.81l.15.43A38.16,38.16,0,0,1,59.74,78.3Z" style="fill: #f8aa1f;"></path><path id="Layer_1" dataName="Layer 1" class="cls-36" d="M59.68,77.3a29.33,29.33,0,0,1-5.58-.52,22.71,22.71,0,0,1-13-7.08c-4.87-5.65-5.4-13-1.44-20.08,8.4-15,8.39-23.08,8.39-40.7V7.75h.45V8.92c0,17.7,0,25.77-8.44,40.92-3.86,6.94-3.36,14.07,1.39,19.56,7.5,8.69,20.91,8.79,30.88,5l.16.42A36.4,36.4,0,0,1,59.68,77.3Z" style="fill: #f9b51f;"></path><path id="Layer_1" dataName="Layer 1" class="cls-37" d="M59.59,76.32c-6.92,0-13.1-2.4-17.25-7-4.93-5.5-5.61-13-1.81-20,7.59-14.07,7.57-22.11,7.54-38.12V7.75h.45c0,1.17,0,2.29,0,3.38,0,16.09,0,24.16-7.6,38.34-3.7,6.88-3,14.18,1.75,19.52,6.53,7.28,18.23,8.93,29.81,4.23l.17.42A34.92,34.92,0,0,1,59.59,76.32Z" style="fill: #fac120;"></path><path id="Layer_1" dataName="Layer 1" class="cls-38" d="M59.67,75.32c-6.39,0-12.13-2.19-16.1-6.43-5.06-5.41-5.88-12.89-2.19-20,6.83-13.14,6.79-20.67,6.71-35.69,0-1.71,0-3.52,0-5.44h.45c0,1.92,0,3.73,0,5.44.09,15.09.13,22.66-6.76,35.9C38.18,56,39,63.32,43.9,68.58c6.44,6.89,17.72,8.24,28.73,3.44l.18.41A33,33,0,0,1,59.67,75.32Z" style="fill: #facc20;"></path><path id="Layer_1" dataName="Layer 1" class="cls-39" d="M59.78,74.33a20.51,20.51,0,0,1-15-5.85c-5.11-5.24-6.1-12.89-2.57-20,6.12-12.26,6-19.77,5.89-33.41,0-2.31,0-4.7,0-7.36h.45c0,2.65,0,5,0,7.36.15,13.7.24,21.25-5.94,33.61-3.48,7-2.55,14.27,2.5,19.45,6.34,6.5,17.19,7.53,27.64,2.65l.19.41A31.28,31.28,0,0,1,59.78,74.33Z" style="fill: #fbd720;"></path><path id="Layer_1" dataName="Layer 1" class="cls-40" d="M60,73.41A19.7,19.7,0,0,1,46,68.07c-5.24-5.15-6.37-12.78-3-19.92,5.47-11.42,5.33-18.89,5.1-31.26,0-2.7-.1-5.77-.1-9.14h.45c0,3.36.06,6.43.11,9.13.23,12.44.36,20-5.15,31.47-3.32,7-2.22,14.39,2.88,19.39s14.52,7.9,26.55,1.88l.2.4A29.36,29.36,0,0,1,60,73.41Z" style="fill: #fbe321;"></path><path id="Layer_1" dataName="Layer 1" class="cls-41" d="M60,72.42a18.21,18.21,0,0,1-12.71-4.78c-5.36-5-6.65-12.64-3.36-19.85,4.85-10.64,4.66-17.64,4.33-29.24-.08-3.16-.18-6.75-.18-10.8h.45c0,4,.1,7.63.19,10.79C49,30.2,49.22,37.25,44.34,48c-3.21,7-2,14.45,3.25,19.34,6.17,5.79,15.93,6.21,25.46,1.11l.21.4A28.33,28.33,0,0,1,60,72.42Z" style="fill: #fcee21;"></path><path id="Layer_1" dataName="Layer 1" class="cls-41" d="M59.87,71.26a17.68,17.68,0,0,1-12.12-4.49C42.49,62,41.3,54.66,44.64,47.7c4.75-9.91,4.39-16.8,3.84-27.23-.19-3.69-.41-7.87-.41-12.72h.45c0,4.84.22,9,.41,12.69.53,10.13.92,17.45-3.88,27.45-3.26,6.77-2.1,13.88,3,18.54,6.17,5.63,15.87,5.85,24.73.56l.24.39A25.92,25.92,0,0,1,59.87,71.26Z" style="fill: #fcee21;"></path><path id="Layer_1" dataName="Layer 1" class="cls-41" d="M59.9,70.21A17.64,17.64,0,0,1,48.24,66c-5.18-4.58-6.29-11.6-2.89-18.33,4.74-9.4,4.18-16.35,3.41-26-.33-4-.69-8.56-.69-13.88h.45c0,5.3.37,9.84.69,13.85.78,9.69,1.34,16.7-3.45,26.22-3.3,6.53-2.24,13.34,2.78,17.78s14.55,6.29,24,0l.25.38A23.06,23.06,0,0,1,59.9,70.21Z" style="fill: #fcee21;"></path><path id="Layer_1" dataName="Layer 1" class="cls-41" d="M59.84,69.14a17.26,17.26,0,0,1-11.08-3.88c-5.12-4.35-6.15-11.1-2.69-17.63,4.77-9,4-16.15,3-25.16a129.45,129.45,0,0,1-1-14.62h.45a128.66,128.66,0,0,0,1,14.57c1,9.08,1.8,16.26-3,25.42-3.36,6.33-2.37,12.87,2.59,17.07s14.51,6,23.19-.68l.28.36A20.79,20.79,0,0,1,59.84,69.14Z" style="fill: #fcee21;"></path><path id="Layer_1" dataName="Layer 1" class="cls-41" d="M59.69,68a16.52,16.52,0,0,1-10.37-3.5c-6.1-4.92-5.31-12-2.54-17,4.85-8.76,3.86-15.75,2.61-24.6A103.6,103.6,0,0,1,48.07,7.86h.45a103,103,0,0,0,1.32,15c1.26,8.93,2.26,16-2.66,24.88C43.71,54,44.62,60.16,49.61,64.19c7,5.68,16.79,3.53,22.38-1.37l.3.34A18.93,18.93,0,0,1,60.14,68Z" style="fill: #fcee21;"></path><path id="Layer_1" dataName="Layer 1" class="cls-41" d="M59.66,67a16.21,16.21,0,0,1-9.74-3.12c-2-1.47-7.87-7-2.42-16.39,4.93-8.54,3.68-15.8,2.22-24.21A88.19,88.19,0,0,1,48.07,7.86h.45a85.89,85.89,0,0,0,1.65,15.31c1.47,8.5,2.74,15.83-2.28,24.52-5.26,9.06.43,14.38,2.3,15.8a16.56,16.56,0,0,0,21.53-2.1l.33.32A17.15,17.15,0,0,1,59.66,67Z" style="fill: #fcee21;"></path><path id="Layer_1" dataName="Layer 1" class="cls-41" d="M59.54,65.89a15.83,15.83,0,0,1-9-2.69c-2-1.39-7.93-6.61-2.34-15.84,5-8.37,3.57-15.59,1.86-24a73.85,73.85,0,0,1-2-15.56h.45a73.92,73.92,0,0,0,2,15.47c1.73,8.46,3.23,15.76-1.91,24.28-5.38,8.9.33,13.91,2.21,15.23,5.63,4,15.26,3.75,20.65-2.87l.35.29A15.64,15.64,0,0,1,59.54,65.89Z" style="fill: #fcee21;"></path><path id="Layer_1" dataName="Layer 1" class="cls-41" d="M59.52,64.88a15.46,15.46,0,0,1-8.29-2.32c-6.27-4-5.3-10.57-2.3-15.33C54.1,39,52.39,31.81,50.41,23.46c-1.15-4.86-2.34-9.88-2.34-15.66h.45c0,5.73,1.19,10.72,2.33,15.55,2,8.45,3.73,15.75-1.54,24.13-5.53,8.78.26,13.47,2.17,14.7,5.74,3.7,15.25,3.1,19.71-3.68l.38.25A14.15,14.15,0,0,1,59.52,64.88Z" style="fill: #fcee21;"></path><path id="Layer_1" dataName="Layer 1" class="cls-41" d="M59.47,63.87c-5,0-9.39-2.2-11.29-5.64C47,56,46.23,52.3,49.64,47.1,55,39,53,31.78,50.75,23.43c-1.32-4.9-2.68-10-2.68-15.68h.45c0,5.65,1.36,10.69,2.67,15.56,2.18,8.11,4.25,15.77-1.17,24-2.6,4-3.1,7.65-1.44,10.66,1.82,3.3,6.08,5.4,10.89,5.4h.28c5-.08,9.18-2.46,11.17-6.37l.41.2c-2.07,4.06-6.4,6.54-11.58,6.62Z" style="fill: #fcee21;"></path></svg> <svg y="405.279802704973" viewBox="0.7199999690055847 5.659999847412109 171.91000366210938 27.81999969482422" x="201.5449981689453" height="27.81999969482422" width="171.91000366210938" style="overflow: visible;"><g fill="#ffffff" fill-opacity="1" style=""><path d="M17.48 22.88L8.02 22.88L5.59 28.92Q5.02 30.32 5.02 31.24L5.02 31.24Q5.02 32.49 6.16 33.02L6.16 33.02L0.72 33.02Q1.10 33.02 1.82 32.26Q2.55 31.50 3.50 29.26L3.50 29.26L13.41 5.66L23.26 29.37Q24.09 31.43 24.87 32.19Q25.65 32.95 26.11 33.02L26.11 33.02L19.80 33.02Q20.75 32.57 20.75 31.62L20.75 31.62Q20.75 30.82 20.14 29.34L20.14 29.34L17.48 22.88ZM8.66 21.32L16.87 21.32L12.73 11.17L8.66 21.32ZM37.01 19.87Q38.76 19.87 40.05 19.06Q41.34 18.24 42.01 16.93Q42.67 15.62 42.67 14.17L42.67 14.17Q42.67 12.69 42.05 11.38Q41.42 10.07 40.13 9.23Q38.84 8.40 36.97 8.40L36.97 8.40L33.74 8.40L33.74 29.53Q33.74 31.05 34.12 31.82Q34.50 32.60 34.96 32.85Q35.42 33.10 35.42 33.02L35.42 33.02L29.37 33.02Q29.37 33.10 29.83 32.83Q30.29 32.57 30.65 31.81Q31.01 31.05 31.01 29.53L31.01 29.53L31.01 10.53Q31.01 8.97 30.65 8.15Q30.29 7.33 29.83 7.05Q29.37 6.76 29.37 6.88L29.37 6.88L36.90 6.88Q39.86 6.88 41.78 7.85Q43.70 8.82 44.55 10.36Q45.41 11.89 45.41 13.72L45.41 13.72Q45.41 15.24 44.69 16.70Q43.97 18.16 42.62 19.25Q41.27 20.33 39.48 20.75L39.48 20.75L38.87 20.86L45.56 29.37Q46.89 30.86 47.77 31.65Q48.64 32.45 49.04 32.72Q49.44 32.98 49.51 33.02L49.51 33.02L45.07 33.02L34.73 19.87L37.01 19.87ZM54.72 8.40Q53.05 8.40 51.95 9.04Q50.84 9.69 50.35 10.68L50.35 10.68L50.88 6.88L68.89 6.88L69.43 10.68Q68.93 9.69 67.83 9.04Q66.73 8.40 65.06 8.40L65.06 8.40L61.26 8.40L61.26 29.49Q61.26 31.01 61.64 31.81Q62.02 32.60 62.47 32.87Q62.93 33.14 62.93 33.02L62.93 33.02L56.89 33.02Q56.89 33.14 57.34 32.87Q57.80 32.60 58.16 31.82Q58.52 31.05 58.52 29.49L58.52 29.49L58.52 8.40L54.72 8.40ZM73.26 33.02Q73.26 33.14 73.72 32.85Q74.18 32.57 74.56 31.79Q74.94 31.01 74.94 29.49L74.94 29.49L74.94 10.41Q74.94 8.89 74.58 8.11Q74.21 7.33 73.76 7.07Q73.30 6.80 73.30 6.88L73.30 6.88L79.34 6.88Q79.34 6.80 78.89 7.07Q78.43 7.33 78.05 8.11Q77.67 8.89 77.67 10.41L77.67 10.41L77.67 29.49Q77.67 31.01 78.05 31.79Q78.43 32.57 78.89 32.83Q79.34 33.10 79.34 33.02L79.34 33.02L73.26 33.02ZM92.07 33.48Q90.10 33.48 88.27 32.93Q86.45 32.38 85.01 31.39L85.01 31.39L85.01 26.79Q85.99 29.34 88.03 30.65Q90.06 31.96 92.26 31.96L92.26 31.96Q94.47 31.96 95.95 30.49Q97.43 29.03 97.43 26.87L97.43 26.87Q97.43 25.42 96.84 24.40Q96.25 23.37 94.96 22.48Q93.67 21.58 91.31 20.48L91.31 20.48Q88.01 18.96 86.51 17.31Q85.01 15.66 85.01 13.30L85.01 13.30Q85.01 11.29 85.97 9.71Q86.94 8.13 88.60 7.28Q90.25 6.42 92.23 6.42L92.23 6.42Q93.94 6.42 95.57 6.90Q97.20 7.37 98.61 8.25L98.61 8.25L98.61 12.35Q97.70 10.26 95.85 9.10Q94.01 7.94 92.11 7.94L92.11 7.94Q89.95 7.94 88.62 9.35Q87.29 10.75 87.29 12.69L87.29 12.69Q87.29 14.10 88.08 15.11Q88.88 16.11 90.04 16.80Q91.20 17.48 93.29 18.47L93.29 18.47Q95.42 19.49 96.79 20.37Q98.15 21.24 99.07 22.65Q99.98 24.05 99.98 26.07L99.98 26.07Q99.98 28.35 98.89 30.02Q97.81 31.69 96.01 32.59Q94.20 33.48 92.07 33.48L92.07 33.48ZM107.31 8.40Q105.64 8.40 104.54 9.04Q103.44 9.69 102.94 10.68L102.94 10.68L103.47 6.88L121.49 6.88L122.02 10.68Q121.52 9.69 120.42 9.04Q119.32 8.40 117.65 8.40L117.65 8.40L113.85 8.40L113.85 29.49Q113.85 31.01 114.23 31.81Q114.61 32.60 115.06 32.87Q115.52 33.14 115.52 33.02L115.52 33.02L109.48 33.02Q109.48 33.14 109.93 32.87Q110.39 32.60 110.75 31.82Q111.11 31.05 111.11 29.49L111.11 29.49L111.11 8.40L107.31 8.40ZM132.81 33.48Q130.83 33.48 129.01 32.93Q127.19 32.38 125.74 31.39L125.74 31.39L125.74 26.79Q126.73 29.34 128.76 30.65Q130.80 31.96 133 31.96L133 31.96Q135.20 31.96 136.69 30.49Q138.17 29.03 138.17 26.87L138.17 26.87Q138.17 25.42 137.58 24.40Q136.99 23.37 135.70 22.48Q134.41 21.58 132.05 20.48L132.05 20.48Q128.74 18.96 127.24 17.31Q125.74 15.66 125.74 13.30L125.74 13.30Q125.74 11.29 126.71 9.71Q127.68 8.13 129.33 7.28Q130.99 6.42 132.96 6.42L132.96 6.42Q134.67 6.42 136.31 6.90Q137.94 7.37 139.35 8.25L139.35 8.25L139.35 12.35Q138.43 10.26 136.59 9.10Q134.75 7.94 132.85 7.94L132.85 7.94Q130.68 7.94 129.35 9.35Q128.02 10.75 128.02 12.69L128.02 12.69Q128.02 14.10 128.82 15.11Q129.62 16.11 130.78 16.80Q131.94 17.48 134.03 18.47L134.03 18.47Q136.15 19.49 137.52 20.37Q138.89 21.24 139.80 22.65Q140.71 24.05 140.71 26.07L140.71 26.07Q140.71 28.35 139.63 30.02Q138.55 31.69 136.74 32.59Q134.94 33.48 132.81 33.48L132.81 33.48ZM145.92 33.02Q145.92 33.14 146.38 32.85Q146.83 32.57 147.21 31.79Q147.59 31.01 147.59 29.49L147.59 29.49L147.59 10.41Q147.59 8.89 147.23 8.11Q146.87 7.33 146.41 7.07Q145.96 6.80 145.96 6.88L145.96 6.88L152.00 6.88Q152.00 6.80 151.54 7.07Q151.09 7.33 150.71 8.11Q150.33 8.89 150.33 10.41L150.33 10.41L150.33 29.49Q150.33 31.01 150.71 31.79Q151.09 32.57 151.54 32.83Q152.00 33.10 152.00 33.02L152.00 33.02L145.92 33.02ZM164.73 33.48Q162.75 33.48 160.93 32.93Q159.11 32.38 157.66 31.39L157.66 31.39L157.66 26.79Q158.65 29.34 160.68 30.65Q162.72 31.96 164.92 31.96L164.92 31.96Q167.12 31.96 168.61 30.49Q170.09 29.03 170.09 26.87L170.09 26.87Q170.09 25.42 169.50 24.40Q168.91 23.37 167.62 22.48Q166.33 21.58 163.97 20.48L163.97 20.48Q160.66 18.96 159.16 17.31Q157.66 15.66 157.66 13.30L157.66 13.30Q157.66 11.29 158.63 9.71Q159.60 8.13 161.25 7.28Q162.91 6.42 164.88 6.42L164.88 6.42Q166.59 6.42 168.23 6.90Q169.86 7.37 171.27 8.25L171.27 8.25L171.27 12.35Q170.35 10.26 168.51 9.10Q166.67 7.94 164.77 7.94L164.77 7.94Q162.60 7.94 161.27 9.35Q159.94 10.75 159.94 12.69L159.94 12.69Q159.94 14.10 160.74 15.11Q161.54 16.11 162.70 16.80Q163.86 17.48 165.95 18.47L165.95 18.47Q168.07 19.49 169.44 20.37Q170.81 21.24 171.72 22.65Q172.63 24.05 172.63 26.07L172.63 26.07Q172.63 28.35 171.55 30.02Q170.47 31.69 168.66 32.59Q166.86 33.48 164.73 33.48L164.73 33.48Z" transform="translate(0, 0)"></path></g></svg></svg>