<?xml version="1.0" standalone="no"?>
<!DOCTYPE svg PUBLIC "-//W3C//DTD SVG 20010904//EN"
 "http://www.w3.org/TR/2001/REC-SVG-20010904/DTD/svg10.dtd">
<svg version="1.0" xmlns="http://www.w3.org/2000/svg"
 width="500.000000pt" height="500.000000pt" viewBox="0 0 500.000000 500.000000"
 preserveAspectRatio="xMidYMid meet">

<g transform="translate(0.000000,500.000000) scale(0.100000,-0.100000)"
fill="#000000" stroke="none">
<path d="M3660 4271 c0 -6 -23 -58 -50 -116 -28 -58 -69 -147 -91 -198 -22
-51 -88 -184 -146 -297 -236 -458 -229 -444 -244 -434 -5 3 -44 9 -86 15 -441
54 -827 54 -1233 0 -46 -6 -68 -5 -76 3 -7 6 -47 79 -89 161 -111 214 -201
387 -291 560 -43 83 -96 185 -118 228 -47 92 -55 89 -75 -25 -7 -40 -17 -86
-21 -103 -4 -16 -13 -57 -19 -90 -19 -96 -31 -157 -41 -200 -5 -22 -25 -123
-45 -225 -20 -102 -45 -228 -56 -280 -11 -52 -25 -120 -31 -150 -24 -129 -24
-128 -134 -184 -235 -122 -403 -264 -519 -441 -88 -134 -99 -175 -99 -350 0
-160 6 -190 60 -298 80 -159 258 -335 464 -458 484 -290 1176 -430 1933 -391
272 14 455 37 657 83 115 26 141 33 235 61 434 128 784 339 973 585 45 59 108
187 127 258 30 116 12 297 -41 413 -37 79 -120 191 -202 272 -89 88 -250 204
-358 258 -33 17 -65 36 -70 44 -10 13 -39 121 -54 203 -8 41 -29 138 -76 350
-14 66 -30 140 -35 165 -5 25 -14 65 -20 90 -5 25 -14 65 -18 90 -5 25 -23
110 -41 190 -17 80 -34 162 -37 183 -3 22 -11 37 -19 37 -8 0 -14 -4 -14 -9z
m-830 -1110 c229 -22 276 -34 253 -63 -9 -12 -59 -108 -248 -473 -43 -82 -95
-182 -116 -222 -21 -39 -80 -152 -130 -250 -128 -247 -123 -238 -148 -238 -19
0 -35 25 -102 155 -78 150 -194 373 -296 570 -164 312 -243 470 -243 482 0 14
41 21 295 47 110 11 591 6 735 -8z m-1945 -348 c-7 -39 -61 -305 -91 -448 -9
-44 -20 -102 -25 -130 -5 -27 -13 -70 -19 -95 -26 -114 -28 -104 34 -144 31
-20 58 -36 60 -36 3 0 40 -21 83 -46 85 -51 112 -67 189 -108 l52 -28 43 25
c24 13 89 51 144 84 242 144 212 138 333 66 42 -25 91 -54 107 -63 17 -10 164
-95 328 -190 l299 -173 41 23 c23 13 75 43 116 68 41 24 88 52 105 62 17 9
145 83 284 164 140 81 264 152 277 158 26 12 19 15 282 -139 79 -46 147 -83
151 -83 9 0 114 60 341 195 l133 80 -5 50 c-3 27 -11 70 -17 95 -5 25 -14 65
-19 90 -10 52 -39 184 -77 355 -32 143 -38 185 -30 185 33 0 209 -124 304
-214 362 -344 315 -737 -127 -1069 -83 -62 -326 -190 -441 -231 -192 -69 -407
-128 -565 -155 -38 -7 -90 -16 -115 -21 -25 -5 -97 -14 -160 -20 -63 -6 -154
-15 -201 -20 -111 -13 -447 -13 -558 0 -47 5 -135 14 -196 20 -228 22 -478 76
-710 152 -168 55 -174 57 -337 138 -224 112 -386 242 -491 395 -103 150 -139
358 -86 500 44 118 112 219 207 307 59 54 195 159 222 171 8 4 38 20 65 36 68
41 77 40 70 -6z"/>
</g>
</svg>
